<svg xmlns="http://www.w3.org/2000/svg" viewBox="0 0 32 32" id="Location"><g transform="translate(0 -1020.362)" fill="#000000" class="color000000 svgShape"><circle cx="16" cy="1036.362" r="16" fill="#f48e28" fill-rule="evenodd" class="coloref4c45 svgShape"></circle><path fill="#df7409" style="line-height:normal;text-indent:0;text-align:start;text-decoration-line:none;text-decoration-style:solid;text-decoration-color:#000;text-transform:none;block-progression:tb;isolation:auto;mix-blend-mode:normal" d="M23.074 30.342a16 16 0 0 0 .184-.082 16 16 0 0 0 1.387-.797 16 16 0 0 0 1.3-.93 16 16 0 0 0 1.201-1.054 16 16 0 0 0 1.092-1.172 16 16 0 0 0 .967-1.272 16 16 0 0 0 .836-1.365 16 16 0 0 0 .48-.992L19.156 11.312l-.037-.03c-.088-.087-.192-.156-.287-.235-.12-.1-.235-.208-.365-.295-.165-.11-.345-.196-.524-.283-.075-.037-.143-.085-.22-.117a4.455 4.455 0 0 0-.606-.19c-.079-.02-.152-.056-.232-.072a4.508 4.508 0 0 0-5.393 4.41.5.5 0 0 0 .024.156c.041 1.58.725 2.96 1.53 4.242.832 1.323 1.795 2.563 2.413 3.829a.5.5 0 0 0 .23.23l7.385 7.385z" color="#000" font-family="sans-serif" font-weight="400" transform="translate(0 1020.362)" class="colordf2209 svgShape"></path><path fill="#ffffff" style="line-height:normal;text-indent:0;text-align:start;text-decoration-line:none;text-decoration-style:solid;text-decoration-color:#000;text-transform:none;block-progression:tb;isolation:auto;mix-blend-mode:normal" d="M7.992 2c-2.48 0-4.5 2.02-4.5 4.5a.5.5 0 0 0 .024.156c.041 1.58.725 2.96 1.53 4.242.832 1.323 1.795 2.563 2.413 3.829a.5.5 0 0 0 .895.01c.648-1.265 1.66-2.507 2.535-3.829.873-1.322 1.619-2.75 1.619-4.4a.5.5 0 0 0-.033-.186C12.379 3.927 10.41 2 7.992 2Zm0 1c1.94 0 3.5 1.561 3.5 3.5a.5.5 0 0 0 .01.107c-.03 1.308-.636 2.52-1.45 3.75-.687 1.041-1.463 2.116-2.134 3.233-.637-1.112-1.371-2.185-2.023-3.223-.794-1.263-1.387-2.505-1.387-3.86a.5.5 0 0 0-.008-.093A3.488 3.488 0 0 1 7.992 3Zm0 2.004c-.822 0-1.5.677-1.5 1.5 0 .822.678 1.5 1.5 1.5.823 0 1.5-.678 1.5-1.5 0-.823-.677-1.5-1.5-1.5zm0 1c.282 0 .5.218.5.5 0 .282-.218.5-.5.5a.493.493 0 0 1-.5-.5c0-.282.218-.5.5-.5z" color="#000" font-family="sans-serif" font-weight="400" overflow="visible" transform="translate(8 1028.362)" class="colorffffff svgShape"></path></g></svg>